<svg width="120" height="32" viewBox="0 0 120 32" fill="none" xmlns="http://www.w3.org/2000/svg">
<g clip-path="url(#clip0_1704_8820)">
<path d="M31.9833 5.96069H12.1168V25.8272H31.9833V5.96069Z" fill="#5C5C5C"/>
<path d="M21.3884 17.2182L17.9448 10.7947H19.5341L21.5208 14.8342C21.5208 14.9004 21.587 14.9667 21.6532 15.0329C21.7195 15.0991 21.7195 15.1653 21.7857 15.2978L21.8519 15.364V15.4302C21.9181 15.5626 21.9181 15.6289 21.9844 15.7613C22.0506 15.8275 22.0506 15.96 22.1168 16.0262C22.183 15.8275 22.3155 15.6951 22.3817 15.4302C22.4479 15.2315 22.5803 15.0329 22.7128 14.8342L24.6994 10.7947H26.1563L22.7128 17.2844V21.3902H21.3884V17.2182Z" fill="white"/>
<path d="M41.0526 9.80078C42.0459 9.80078 42.9068 10.0657 43.569 10.5954L42.9068 11.3901C42.3108 10.9928 41.7148 10.7279 40.9863 10.7279C39.8606 10.7279 38.9997 11.3239 38.5361 12.4497C38.2712 13.1119 38.1388 13.9728 38.1388 15.0985C38.1388 15.9594 38.2712 16.6878 38.4699 17.2176C38.9997 18.4758 39.8606 19.0718 41.185 19.0718C41.9134 19.0718 42.5757 18.8732 43.1717 18.4096L43.8339 19.2705C42.973 19.8003 42.0459 20.0652 41.0526 20.0652C39.8606 20.0652 38.8672 19.6016 38.0726 18.6083C37.2779 17.6812 36.9468 16.423 36.9468 14.8999C36.9468 13.3768 37.3441 12.1848 38.1388 11.1914C38.8672 10.3306 39.8606 9.80078 41.0526 9.80078Z" fill="#5C5C5C"/>
<path d="M44.8257 16.3565C44.8257 15.1645 45.0906 14.2374 45.6866 13.5752C46.2826 12.913 47.011 12.5156 47.9381 12.5156C48.9977 12.5156 49.8586 12.913 50.4546 13.7738C50.9181 14.4361 51.1168 15.3632 51.1168 16.4889C51.1168 17.8134 50.7195 18.8729 49.991 19.5351C49.4612 19.9987 48.799 20.2636 48.0044 20.2636C47.011 20.2636 46.2826 19.9325 45.6866 19.204C45.0906 18.5418 44.8257 17.5485 44.8257 16.3565ZM49.4612 14.4361C49.1301 13.8401 48.6666 13.509 47.9381 13.509C47.2097 13.509 46.7461 13.7738 46.415 14.3036C46.1501 14.7009 46.0839 15.3632 46.0839 16.224C46.0839 17.3498 46.2164 18.1445 46.5475 18.608C46.8786 19.0716 47.3421 19.3365 48.0044 19.3365C48.799 19.3365 49.3288 18.9391 49.5937 18.2107C49.7261 17.8134 49.7923 17.2836 49.7923 16.6214C49.8586 15.628 49.7261 14.8996 49.4612 14.4361Z" fill="#5C5C5C"/>
<path d="M53.239 14.5685C53.239 13.8401 53.1728 13.2441 52.9742 12.7805L54.0999 12.5156C54.2986 12.8467 54.3648 13.2441 54.3648 13.5752V13.6414C54.6297 13.3765 54.8946 13.1116 55.2919 12.913C55.7555 12.6481 56.1528 12.5156 56.5501 12.5156C57.1461 12.5156 57.6759 12.7805 58.007 13.2441C58.0732 13.3765 58.2057 13.5752 58.2719 13.7076C59.0666 12.913 59.795 12.5156 60.5897 12.5156C61.1194 12.5156 61.583 12.7143 61.9141 13.0454C62.2452 13.4427 62.4439 13.9063 62.4439 14.4361V19.9325H61.2519V14.5023C61.2519 13.7738 60.9208 13.4427 60.3248 13.4427C59.9937 13.4427 59.5963 13.5752 59.2652 13.8401C59.1328 13.9725 58.8679 14.1712 58.5368 14.4361L58.4043 14.5685V19.9325H57.1461V14.7672C57.1461 14.3036 57.0799 13.9725 56.9475 13.8401C56.7488 13.6414 56.5501 13.5752 56.219 13.5752C55.6892 13.5752 55.0932 13.9063 54.3648 14.5685V19.9987H53.239V14.5685Z" fill="#5C5C5C"/>
<path d="M64.4937 9.53637L65.6857 9.27148C65.8181 9.80126 65.8843 10.3973 65.8843 11.1257V12.7812C65.8843 13.1786 65.8843 13.4435 65.8843 13.5759C66.5466 12.9137 67.275 12.5826 68.0034 12.5826C68.8643 12.5826 69.5928 12.9137 70.0563 13.5759C70.5861 14.2381 70.851 15.1652 70.851 16.291C70.851 17.483 70.5861 18.4101 70.0563 19.1385C69.5265 19.867 68.7981 20.1981 67.9372 20.1981C67.5399 20.1981 67.2088 20.1319 66.8114 19.9332C66.4141 19.7345 66.1492 19.5359 65.9506 19.271C65.8843 19.6021 65.8181 19.867 65.7519 20.0656H64.6261C64.7586 19.7345 64.8248 19.1385 64.8248 18.2114V11.2581C64.7586 10.4635 64.6923 9.86748 64.4937 9.53637ZM66.4141 14.0395C66.2155 14.1719 66.0168 14.3706 65.8843 14.5692V18.3439C66.3479 18.9399 66.9439 19.2048 67.6723 19.2048C68.2683 19.2048 68.7319 19.0061 68.9968 18.5425C69.3279 18.0128 69.5265 17.2843 69.5265 16.2248C69.5265 15.2977 69.3941 14.6354 69.063 14.2381C68.7981 13.8408 68.3345 13.6421 67.6723 13.6421C67.275 13.5759 66.8114 13.7083 66.4141 14.0395Z" fill="#5C5C5C"/>
<path d="M72.5757 10.4642C72.5757 10.1993 72.6419 10.0007 72.8406 9.802C73.0393 9.60333 73.2379 9.53711 73.5028 9.53711C73.7677 9.53711 73.9664 9.60333 74.165 9.802C74.3637 10.0007 74.4299 10.1993 74.4299 10.4642C74.4299 10.7291 74.3637 10.9278 74.165 11.1264C73.9664 11.3251 73.7677 11.3913 73.5028 11.3913C73.2379 11.3913 73.0393 11.3251 72.8406 11.1264C72.6419 10.9278 72.5757 10.7291 72.5757 10.4642ZM72.8406 20.0002V12.7158L74.0326 12.5171V20.0002H72.8406Z" fill="#5C5C5C"/>
<path d="M76.6139 14.5685C76.6139 14.0387 76.6139 13.7076 76.5476 13.5752C76.5476 13.3765 76.4152 13.1778 76.2827 12.8467L77.4085 12.5156C77.6072 12.913 77.6734 13.2441 77.6734 13.6414C78.4018 12.913 79.1965 12.5156 79.9912 12.5156C80.3885 12.5156 80.7196 12.5818 81.0507 12.7805C81.3818 12.9792 81.6467 13.2441 81.7792 13.5752C81.9116 13.8401 81.9778 14.1049 81.9778 14.4361V19.9987H80.852V15.0321C80.852 14.4361 80.7858 14.0387 80.5872 13.8401C80.3885 13.6414 80.1236 13.509 79.7925 13.509C79.5276 13.509 79.1303 13.6414 78.7329 13.8401C78.3356 14.0387 78.0045 14.3036 77.7396 14.5685V19.9987H76.6139V14.5685Z" fill="#5C5C5C"/>
<path d="M84.6278 14.3036L84.0318 13.509C85.0251 12.8467 86.0185 12.5156 87.078 12.5156C88.1376 12.5156 88.7998 12.913 89.1309 13.6414C89.2633 13.9063 89.2633 14.3036 89.2633 14.8996V15.2969L89.1971 17.6809C89.1971 17.7471 89.1971 17.8796 89.1971 18.012C89.1971 18.4094 89.1971 18.6743 89.2633 18.8729C89.3296 19.1378 89.5282 19.3365 89.7931 19.4689L89.1971 20.2636C88.6674 20.0649 88.3362 19.7338 88.2038 19.204C87.5416 19.8662 86.8131 20.1974 86.0847 20.1974C85.3563 20.1974 84.7603 19.9987 84.2967 19.6014C83.8994 19.2702 83.7007 18.7405 83.7007 18.0783C83.7007 17.2174 84.0318 16.6214 84.694 16.1578C85.3563 15.6943 86.3496 15.4956 87.5416 15.4956C87.7402 15.4956 87.8727 15.4956 88.0714 15.4956V14.9658C88.0714 14.3698 88.0051 13.9725 87.8065 13.8401C87.5416 13.5752 87.2767 13.4427 86.8131 13.4427C86.4158 13.4427 85.9523 13.5752 85.4225 13.7738C85.2238 13.9063 84.9589 14.1049 84.6278 14.3036ZM88.1376 18.2107L88.2038 16.2903C87.8727 16.2903 87.674 16.2903 87.6078 16.2903C86.5483 16.2903 85.886 16.4889 85.4887 16.8863C85.2238 17.1512 85.0914 17.5485 85.0914 18.0783C85.0914 18.9391 85.4887 19.4027 86.3496 19.4027C87.1442 19.3365 87.7402 18.9391 88.1376 18.2107Z" fill="#5C5C5C"/>
<path d="M93.0386 12.7148H94.8928L94.5617 13.6419H93.0386V18.3437C93.0386 18.741 93.1048 19.0059 93.2372 19.2045C93.3697 19.337 93.6346 19.4694 93.9657 19.4694C94.2306 19.4694 94.4954 19.4032 94.6941 19.337L94.8266 20.0654C94.4292 20.2641 94.0319 20.3303 93.5683 20.3303C92.4426 20.3303 91.9128 19.8005 91.9128 18.6748V13.6419H90.9195V12.7148H91.8466V12.5824C91.8466 12.4499 91.9128 11.9201 91.979 11.0593V10.8606L93.171 10.5957C93.0386 11.3904 93.0386 12.1188 93.0386 12.7148Z" fill="#5C5C5C"/>
<path d="M96.0835 16.3565C96.0835 15.1645 96.3484 14.2374 96.9444 13.5752C97.4742 12.913 98.2688 12.5156 99.1959 12.5156C100.255 12.5156 101.116 12.913 101.712 13.7738C102.176 14.4361 102.375 15.3632 102.375 16.4889C102.375 17.8134 101.977 18.8729 101.249 19.5351C100.719 19.9987 100.057 20.2636 99.2622 20.2636C98.2688 20.2636 97.5404 19.9325 96.9444 19.204C96.4146 18.5418 96.0835 17.5485 96.0835 16.3565ZM100.785 14.4361C100.454 13.8401 99.9906 13.509 99.2622 13.509C98.5337 13.509 98.0702 13.7738 97.7391 14.3036C97.4742 14.7009 97.408 15.3632 97.408 16.224C97.408 17.3498 97.5404 18.1445 97.8715 18.608C98.2026 19.0716 98.6662 19.3365 99.3284 19.3365C100.123 19.3365 100.653 18.9391 100.918 18.2107C101.05 17.8134 101.116 17.2836 101.116 16.6214C101.116 15.628 100.984 14.8996 100.785 14.4361Z" fill="#5C5C5C"/>
<path d="M104.559 14.4361C104.559 13.7738 104.493 13.2441 104.294 12.8467L105.42 12.5156C105.619 12.913 105.685 13.2441 105.685 13.6414V13.7738C106.281 12.9792 106.943 12.5818 107.738 12.5818C107.87 12.5818 108.003 12.5818 108.135 12.6481L107.672 13.9063C107.539 13.8401 107.407 13.8401 107.341 13.8401C107.076 13.8401 106.745 13.9063 106.48 14.1049C106.215 14.3036 105.95 14.5023 105.818 14.7672C105.751 14.9658 105.685 15.2307 105.685 15.5618V20.1311H104.559V14.4361Z" fill="#5C5C5C"/>
</g>
<defs>
<clipPath id="clip0_1704_8820">
<rect width="96.0216" height="19.8665" fill="white" transform="translate(12.1172 5.96094)"/>
</clipPath>
</defs>
</svg>
