<svg width="121" height="32" viewBox="0 0 121 32" fill="none" xmlns="http://www.w3.org/2000/svg">
<g clip-path="url(#clip0_1704_8792)">
<path d="M65.2965 10.0293H61.4999H60.3079V10.4855C60.5434 10.5149 60.7347 10.5296 60.8966 10.5738C61.0879 10.6179 61.2203 10.6768 61.3233 10.7651C61.6176 11.0152 61.6176 11.5009 61.6176 12.3544V18.1376C61.6176 19.3148 61.7206 20.9777 60.0578 20.9483C59.3367 20.9336 58.6156 20.4332 58.3802 19.5061H57.8063C58.0417 21.066 58.8805 22.1255 60.8966 22.1255C62.6036 22.1255 64.134 21.3309 64.134 18.6674V14.1791V12.3544C64.134 11.4861 64.134 11.0447 64.4283 10.7798C64.6196 10.6179 64.7668 10.5443 65.2965 10.4855V10.044V10.0293Z" fill="#5C5C5C"/>
<path d="M71.0331 10.0293H66.0446V10.456V10.4855C66.5596 10.5296 66.7362 10.6179 66.9128 10.7798C67.1482 10.9858 67.1924 11.3096 67.1924 11.8835C67.1924 12.06 67.1924 12.2366 67.1924 12.4574V19.3737C67.1924 19.5797 67.1924 19.771 67.1924 19.9476C67.1777 20.5068 67.1482 20.86 66.9128 21.0513C66.7215 21.2132 66.5743 21.2867 66.0446 21.3456V21.375V21.8018H71.0331H71.0479H73.5789L74.3736 19.4914H73.7997C73.2258 20.757 72.3281 20.9041 71.504 20.9041C70.8271 20.9041 70.3857 20.86 70.0766 20.6687C69.8265 20.5068 69.7382 20.0801 69.7235 19.3443V12.4868V12.3544C69.7235 11.4861 69.7235 11.0152 70.0178 10.7651C70.2091 10.6032 70.5181 10.5443 71.0479 10.5002L71.0331 10.0293Z" fill="#5C5C5C"/>
<path d="M79.33 10.0293H74.3414V10.456V10.4855C74.8565 10.5296 75.0331 10.6179 75.2097 10.7798C75.4451 10.9858 75.4892 11.3096 75.4892 11.8835C75.4892 12.06 75.4892 12.2366 75.4892 12.4574V19.3737C75.4892 19.5797 75.4892 19.771 75.4892 19.9476C75.4745 20.5068 75.4451 20.86 75.2097 21.0513C75.0183 21.2132 74.8712 21.2867 74.3414 21.3456V21.375V21.8018H79.33H79.3447H81.8758L82.6705 19.4914H82.0966C81.5226 20.757 80.625 20.9041 79.8009 20.9041C79.124 20.9041 78.6825 20.86 78.3735 20.6687C78.1233 20.5068 78.035 20.0801 78.0203 19.3443V12.4868V12.3544C78.0203 11.4861 78.0203 11.0152 78.3146 10.7651C78.5059 10.6032 78.815 10.5443 79.3447 10.5002V10.0293H79.33Z" fill="#5C5C5C"/>
<path d="M45.8522 25.3779C46.0876 25.2749 46.3084 25.1425 46.5291 24.9953C46.5732 24.9659 46.6174 24.9365 46.6615 24.907C46.9264 24.7157 47.1619 24.495 47.3973 24.2301C47.6916 23.9211 47.9565 23.5679 48.2067 23.2C48.398 22.9204 48.5598 22.6114 48.7217 22.3024C49.3251 21.0957 49.7224 19.7713 49.9284 18.4616C50.0608 17.6081 50.1197 16.7546 50.1197 15.9158C50.1197 15.077 50.0608 14.2235 49.9284 13.37C49.7224 12.0603 49.3398 10.7212 48.7217 9.52922C48.6481 9.39678 48.5746 9.24963 48.501 9.11719C48.1772 9.70581 47.9124 10.3386 47.6916 11.0008C48.0889 12.178 48.3244 13.4289 48.4127 14.665C48.4421 15.077 48.4568 15.5185 48.4568 15.9305C48.4568 16.3425 48.4421 16.784 48.4127 17.1961C48.3097 18.7118 48.0006 20.2275 47.412 21.6402C47.1913 22.1846 46.9264 22.7144 46.6027 23.2147C46.5291 23.3325 46.4702 23.4502 46.3819 23.5679C46.2201 23.8034 46.0582 24.0241 45.8816 24.2595C45.6756 24.5097 45.4548 24.7599 45.2047 24.9953C44.9545 25.2455 44.6896 25.4662 44.3953 25.6722C44.3659 25.687 44.3512 25.7017 44.3217 25.7164V25.7458C44.8368 25.7311 45.3813 25.5987 45.8522 25.3779Z" fill="#5C5C5C"/>
<path d="M48.9138 25.3782C49.1492 25.2752 49.3699 25.1428 49.5907 24.9956C49.6348 24.9662 49.679 24.9367 49.7231 24.9073C50.6208 24.2304 51.283 23.318 51.7833 22.3321C52.3866 21.1254 52.784 19.801 52.99 18.4913C53.1224 17.6378 53.1813 16.7843 53.1813 15.9455C53.1813 15.1067 53.1224 14.2532 52.99 13.3997C52.784 12.09 52.4014 10.7509 51.7833 9.55893C51.3271 8.64657 50.7091 7.79306 49.9144 7.13086C49.6643 7.39574 49.4288 7.69005 49.2081 7.99908C49.2817 8.10209 49.3552 8.2051 49.4288 8.30811C50.6943 10.1917 51.3124 12.4285 51.4596 14.68C51.489 15.092 51.5037 15.5335 51.5037 15.9455C51.5037 16.3575 51.489 16.799 51.4596 17.211C51.3124 19.4625 50.6943 21.714 49.4288 23.5829C49.2669 23.8184 49.1051 24.0391 48.9285 24.2745C48.7225 24.5247 48.5017 24.7749 48.2516 25.0103C48.0014 25.2605 47.7365 25.4812 47.4422 25.6872C47.4128 25.702 47.3981 25.7167 47.3686 25.7314V25.7608C47.9131 25.7314 48.4429 25.5989 48.9138 25.3782Z" fill="#5C5C5C"/>
<path d="M52.8012 24.8914C53.6989 24.2145 54.3611 23.3021 54.8614 22.3162C55.4648 21.1095 55.8621 19.7851 56.0681 18.4754C56.2005 17.6219 56.2594 16.7684 56.2594 15.9296C56.2594 15.0908 56.2005 14.2373 56.0681 13.3838C55.8621 12.0741 55.4795 10.735 54.8614 9.54306C54.3611 8.55712 53.6842 7.61532 52.8012 6.96783C52.1243 6.43807 51.2855 6.11432 50.4615 6.09961V6.12904C51.2708 6.68823 51.9625 7.46816 52.4922 8.29223C53.7578 10.1758 54.3758 12.4126 54.523 14.6641C54.5524 15.0761 54.5671 15.5176 54.5671 15.9296C54.5671 16.3417 54.5524 16.7831 54.523 17.1952C54.3758 19.4467 53.7578 21.6981 52.4922 23.567C51.9477 24.3764 51.2561 25.1563 50.4467 25.7302V25.7597C51.2855 25.7302 52.1243 25.4065 52.8012 24.8914Z" fill="#5C5C5C"/>
<path d="M48.9125 6.4675C48.6771 6.57051 48.4564 6.70295 48.2356 6.85011C48.1915 6.87954 48.1473 6.90897 48.1032 6.9384C47.853 7.1297 47.6029 7.35044 47.3674 7.6006C47.0731 7.90963 46.8082 8.2628 46.558 8.63069C46.3667 8.91029 46.2049 9.21932 46.043 9.52834C45.4397 10.735 45.0423 12.0594 44.8363 13.3691C44.7039 14.2226 44.645 15.0761 44.645 15.9149C44.645 16.7537 44.7039 17.6072 44.8363 18.4607C45.0423 19.7704 45.4249 21.1095 46.043 22.3015C46.1166 22.4339 46.1902 22.5811 46.2637 22.7135C46.5875 22.1249 46.8524 21.4921 47.0731 20.8299C46.6758 19.6527 46.4403 18.4019 46.352 17.1657C46.3226 16.7537 46.3079 16.3122 46.3079 15.9002C46.3079 15.4882 46.3226 15.0467 46.352 14.6347C46.455 13.119 46.7641 11.6032 47.3527 10.1905C47.5881 9.66079 47.853 9.11631 48.1768 8.61598C48.2503 8.49825 48.3092 8.38053 48.3975 8.2628C48.5594 8.02735 48.7212 7.80662 48.8978 7.57117C49.1038 7.321 49.3246 7.07084 49.5747 6.83539C49.8249 6.58522 50.0898 6.36449 50.3841 6.15847C50.4135 6.14376 50.4283 6.12904 50.4577 6.11432V6.09961C49.9279 6.11432 49.4129 6.24677 48.9125 6.4675Z" fill="#5C5C5C"/>
<path d="M45.8549 6.4675C45.6194 6.57051 45.3987 6.70295 45.178 6.85011C45.1338 6.87954 45.0897 6.90897 45.0455 6.9384C44.1626 7.61532 43.5004 8.52768 42.9854 9.51363C42.382 10.7203 41.9847 12.0447 41.7787 13.3544C41.6462 14.2226 41.5874 15.0614 41.5874 15.9149C41.5874 16.7537 41.6462 17.6072 41.7787 18.4607C41.9847 19.7704 42.3673 21.1095 42.9854 22.3015C43.4415 23.2139 44.0596 24.0674 44.8542 24.7296C45.1044 24.4647 45.3399 24.1704 45.5606 23.8613C45.487 23.7583 45.4134 23.6553 45.3399 23.5523C44.0743 21.6687 43.4563 19.4319 43.3091 17.1805C43.2797 16.7684 43.265 16.327 43.265 15.9149C43.265 15.5029 43.2797 15.0614 43.3091 14.6494C43.4563 12.3979 44.0743 10.1464 45.3399 8.27752C45.5017 8.04207 45.6636 7.82133 45.8402 7.58589C46.0462 7.33572 46.2669 7.08555 46.5171 6.85011C46.7673 6.61466 47.0321 6.39392 47.3117 6.20262C47.3412 6.1879 47.3559 6.17319 47.3853 6.15847V6.09961C46.8703 6.11432 46.3405 6.24677 45.8549 6.4675Z" fill="#5C5C5C"/>
<path d="M41.983 6.95311C41.0854 7.63003 40.4232 8.5424 39.9228 9.52834C39.3195 10.735 38.9222 12.0594 38.7162 13.3691C38.5837 14.2373 38.5249 15.0761 38.5249 15.9296C38.5249 16.7684 38.5837 17.6219 38.7162 18.4754C38.9222 19.7851 39.3048 21.1242 39.9228 22.3162C40.4232 23.3021 41.1001 24.2439 41.983 24.8914C42.6599 25.377 43.484 25.7155 44.3228 25.7449V25.7155C43.4987 25.1563 42.8218 24.3764 42.2773 23.5523C41.0118 21.6687 40.3937 19.4319 40.2466 17.1805C40.2172 16.7684 40.2024 16.327 40.2024 15.9149C40.2024 15.5029 40.2172 15.0614 40.2466 14.6494C40.3937 12.3979 41.0118 10.1464 42.2773 8.27752C42.8071 7.46816 43.4987 6.68823 44.3228 6.12904V6.09961C43.484 6.11432 42.6452 6.43807 41.983 6.95311Z" fill="#5C5C5C"/>
<path d="M47.9287 24.7453C48.1789 24.4804 48.4143 24.1861 48.6351 23.877C48.5615 23.774 48.4879 23.671 48.4143 23.568C48.3408 23.4503 48.2672 23.3326 48.1936 23.2148C47.9582 23.568 47.6933 23.9359 47.3842 24.2449C47.5461 24.4215 47.7521 24.5834 47.9287 24.7453Z" fill="#5C5C5C"/>
<path d="M49.5924 24.9961C49.3864 25.1432 49.1657 25.261 48.9155 25.3787C49.3864 25.5994 49.9309 25.7319 50.4459 25.7466V25.7172C50.1516 25.5111 49.8573 25.261 49.5924 24.9961Z" fill="#5C5C5C"/>
<path d="M47.1038 25.7298C47.1921 25.7151 47.2657 25.7004 47.354 25.7004C47.2657 25.6415 47.1921 25.5826 47.1038 25.5238C46.8978 25.3619 46.7065 25.2 46.5299 25.0234C46.3239 25.1706 46.1032 25.2883 45.853 25.406C46.162 25.5532 46.5152 25.6562 46.8537 25.7151C46.942 25.7004 47.0155 25.7151 47.1038 25.7298ZM47.3834 25.7445V25.7151C47.3687 25.7004 47.354 25.7004 47.3393 25.6856C47.251 25.7004 47.1774 25.7151 47.0891 25.7151C47.1921 25.7445 47.2951 25.7445 47.3834 25.7445Z" fill="#5C5C5C"/>
<path d="M46.8523 7.11523C46.6021 7.38012 46.3667 7.67443 46.146 7.98345C46.2195 8.08646 46.2931 8.18947 46.3667 8.29248C46.4403 8.41021 46.5139 8.52793 46.5874 8.64566C46.8229 8.29248 47.0878 7.92459 47.3968 7.61556C47.2202 7.42426 47.0436 7.26239 46.8523 7.11523Z" fill="#5C5C5C"/>
<path d="M45.1753 6.86482C45.3813 6.71766 45.602 6.59994 45.8522 6.48222C45.3813 6.24677 44.8368 6.11432 44.3217 6.09961V6.12904C44.6308 6.33506 44.9104 6.58522 45.1753 6.86482Z" fill="#5C5C5C"/>
<path d="M48.9147 6.4675C48.6056 6.32034 48.2525 6.21733 47.914 6.15847C47.8257 6.14376 47.7521 6.12904 47.6638 6.12904C47.5755 6.11432 47.4873 6.09961 47.3842 6.09961V6.12904C47.399 6.14376 47.4137 6.14376 47.4284 6.15847C47.5167 6.21733 47.5903 6.2762 47.6786 6.33506C47.8846 6.49693 48.0759 6.6588 48.2525 6.83539C48.4732 6.70295 48.6939 6.57051 48.9147 6.4675Z" fill="#5C5C5C"/>
</g>
<defs>
<clipPath id="clip0_1704_8792">
<rect width="44.1468" height="19.66" fill="white" transform="translate(38.525 6.09961)"/>
</clipPath>
</defs>
</svg>
