<svg width="121" height="32" viewBox="0 0 121 32" fill="none" xmlns="http://www.w3.org/2000/svg">
<g clip-path="url(#clip0_1704_8817)">
<path fill-rule="evenodd" clip-rule="evenodd" d="M54.9187 5.37668H68.9584C69.6027 5.37668 70.1256 4.85367 70.1256 4.20936C70.1256 3.56305 69.6027 3.04004 68.9584 3.04004H54.9187C54.2744 3.04004 53.7513 3.56305 53.7513 4.20936C53.7513 4.85367 54.2744 5.37668 54.9187 5.37668ZM72.8164 9.75365H58.7766C58.1323 9.75365 57.6093 9.23064 57.6093 8.58632C57.6093 7.94201 58.1323 7.417 58.7766 7.417H72.8164C73.4608 7.417 73.9836 7.94002 73.9836 8.58632C73.9836 9.23064 73.4608 9.75365 72.8164 9.75365ZM52.6457 14.1326H66.6855C67.3319 14.1326 67.8547 13.6096 67.8527 12.9653C67.8527 12.319 67.3299 11.796 66.6855 11.796H52.6457C52.0014 11.796 51.4784 12.321 51.4784 12.9653C51.4784 13.6096 52.0014 14.1326 52.6457 14.1326ZM82.4356 22.9125C82.2347 22.819 82.0237 22.7394 81.809 22.6778C81.594 22.6142 81.3773 22.5664 81.1626 22.5306C80.948 22.4968 80.7451 22.4789 80.5559 22.4789C80.0687 22.4789 79.669 22.5465 79.3572 22.6818C79.0429 22.817 78.8877 23.0178 78.8877 23.2823C78.8877 23.505 79.0089 23.6781 79.2514 23.8034C79.494 23.9286 79.8002 24.038 80.1684 24.1315C80.5361 24.2249 80.9338 24.3184 81.3615 24.4079C81.7892 24.4974 82.1869 24.6247 82.5546 24.7897C82.9228 24.9528 83.2289 25.1675 83.4715 25.432C83.7141 25.6965 83.8352 26.0445 83.8352 26.4761C83.8352 26.838 83.7457 27.1602 83.5687 27.4406C83.3918 27.7229 83.1492 27.9616 82.8389 28.1604C82.5287 28.3593 82.1691 28.5105 81.7592 28.6138C81.3477 28.7172 80.914 28.7709 80.4547 28.7709C80.1842 28.7709 79.8897 28.7491 79.5738 28.7034C79.2575 28.6576 78.9412 28.59 78.6233 28.5005C78.307 28.409 77.9988 28.2996 77.7003 28.1724C77.4022 28.0431 77.1296 27.8959 76.887 27.7289L77.6804 26.5496C77.8615 26.6888 78.0664 26.8161 78.2969 26.9295C78.5257 27.0448 78.7683 27.1423 79.023 27.2218C79.2753 27.3014 79.5378 27.363 79.8043 27.4048C80.0728 27.4465 80.3352 27.4664 80.592 27.4664C80.7787 27.4664 80.9719 27.4525 81.1667 27.4246C81.3615 27.3968 81.5365 27.3491 81.6936 27.2835C81.8507 27.2178 81.9779 27.1323 82.0796 27.0269C82.1808 26.9235 82.2306 26.7943 82.2306 26.6411C82.2306 26.3985 82.1091 26.2096 81.8665 26.0783C81.6239 25.9471 81.3157 25.8357 80.948 25.7502C80.5778 25.6627 80.1821 25.5772 79.7585 25.4897C79.3333 25.4022 78.9372 25.2849 78.5694 25.1338C78.2017 24.9846 77.8935 24.7818 77.6509 24.5272C77.4063 24.2747 77.2848 23.9346 77.2848 23.509C77.2848 23.169 77.3702 22.8548 77.5415 22.5704C77.7124 22.286 77.9469 22.0374 78.2454 21.8286C78.5435 21.6199 78.8918 21.4587 79.2911 21.3434C79.6909 21.2281 80.1246 21.1704 80.592 21.1704C80.8423 21.1704 81.1108 21.1923 81.4012 21.234C81.6895 21.2758 81.9779 21.3355 82.2622 21.411C82.5465 21.4886 82.8191 21.5801 83.0759 21.6874C83.3322 21.7949 83.5631 21.9161 83.764 22.0474L82.9701 23.2267C82.815 23.1133 82.6381 23.0079 82.4356 22.9125ZM48.8196 22.2303L48.0261 23.4096C47.692 23.1034 47.3122 22.8866 46.8826 22.7573C46.4551 22.6281 46.0414 22.5644 45.6457 22.5644C45.2361 22.5644 44.8582 22.6221 44.5122 22.7375C44.1682 22.8528 43.8699 23.0139 43.6193 23.2227C43.3687 23.4315 43.1738 23.686 43.0346 23.9843C42.8954 24.2846 42.8258 24.6147 42.8258 24.9747C42.8258 25.3425 42.8954 25.6767 43.0346 25.971C43.1738 26.2673 43.3687 26.5198 43.6193 26.7266C43.8699 26.9354 44.1662 27.0965 44.5122 27.2119C44.8582 27.3272 45.2341 27.3829 45.6457 27.3829C46.125 27.3829 46.5585 27.3093 46.9443 27.1641C47.3301 27.019 47.7179 26.7982 48.1076 26.5059L48.8792 27.6533C48.4616 28.0153 47.9724 28.2917 47.4136 28.4826C46.8528 28.6735 46.2642 28.7709 45.6437 28.7709C44.9537 28.7709 44.3372 28.6715 43.7903 28.4727C43.2435 28.2738 42.7801 28.0033 42.3983 27.6593C42.0165 27.3153 41.7241 26.9116 41.5213 26.4482C41.3185 25.9849 41.217 25.4937 41.217 24.9707C41.217 24.4497 41.3185 23.9565 41.5213 23.4951C41.7241 23.0318 42.0165 22.6281 42.3983 22.2841C42.7801 21.94 43.2435 21.6676 43.7903 21.4707C44.3372 21.2718 44.9537 21.1724 45.6437 21.1724C46.3179 21.1724 46.9204 21.2658 47.4494 21.4548C47.9804 21.6457 48.4358 21.9022 48.8196 22.2303ZM39.8449 26.4522C40.0457 25.9889 40.1472 25.4957 40.1472 24.9747C40.1472 24.4517 40.0457 23.9605 39.8449 23.4991C39.644 23.0358 39.3517 22.6321 38.9739 22.288C38.594 21.944 38.1326 21.6736 37.5858 21.4747C37.0389 21.2758 36.4205 21.1764 35.7324 21.1764C35.0423 21.1764 34.4258 21.2758 33.879 21.4747C33.3321 21.6716 32.8688 21.944 32.4909 22.288C32.1111 22.6321 31.8208 23.0358 31.6199 23.4991C31.419 23.9605 31.3176 24.4517 31.3176 24.9747C31.3176 25.4977 31.4171 25.9889 31.6199 26.4522C31.8208 26.9156 32.1111 27.3193 32.4909 27.6633C32.8708 28.0074 33.3321 28.2778 33.879 28.4767C34.4258 28.6755 35.0423 28.775 35.7324 28.775C36.4225 28.775 37.0389 28.6755 37.5858 28.4767C38.1326 28.2798 38.594 28.0074 38.9739 27.6633C39.3517 27.3193 39.642 26.9156 39.8449 26.4522ZM34.6088 22.7375C34.9528 22.6221 35.3287 22.5645 35.7384 22.5645C36.146 22.5645 36.5239 22.6201 36.8699 22.7375C37.2139 22.8528 37.5082 23.0139 37.7548 23.2227C37.9994 23.4315 38.1923 23.686 38.3315 23.9843C38.4707 24.2826 38.5403 24.6128 38.5403 24.9747C38.5403 25.3426 38.4707 25.6747 38.3315 25.971C38.1943 26.2673 38.0014 26.5198 37.7548 26.7287C37.5082 26.9375 37.2139 27.0985 36.8699 27.2139C36.5258 27.3292 36.148 27.3869 35.7384 27.3869C35.3287 27.3869 34.9528 27.3292 34.6088 27.2139C34.2648 27.0985 33.9685 26.9375 33.7179 26.7287C33.4693 26.5178 33.2744 26.2673 33.1352 25.971C32.996 25.6747 32.9264 25.3446 32.9264 24.9747C32.9264 24.6147 32.996 24.2826 33.1352 23.9843C33.2724 23.686 33.4673 23.4315 33.7179 23.2227C33.9685 23.0139 34.2648 22.8528 34.6088 22.7375ZM29.9773 26.321C30.1384 25.8894 30.2179 25.442 30.2179 24.9747C30.2179 24.5093 30.1384 24.0599 29.9773 23.6304C29.8182 23.1988 29.5875 22.8349 29.2892 22.5346C29.0506 22.298 28.8 22.1011 28.5316 21.94C28.2631 21.7789 27.9707 21.6497 27.6546 21.5482C27.3384 21.4468 26.9943 21.3752 26.6265 21.3335C26.2566 21.2917 25.8529 21.2698 25.4154 21.2698C24.9282 21.2698 24.427 21.2758 23.912 21.2858C23.3969 21.2957 22.8679 21.3076 22.3251 21.3216V28.6278L22.4717 28.6315L22.4722 28.6316C22.9637 28.6442 23.4436 28.6565 23.912 28.6656C24.427 28.6755 24.9282 28.6815 25.4154 28.6815C25.8549 28.6815 26.2586 28.6596 26.6265 28.6179C26.9943 28.5761 27.3364 28.5065 27.6546 28.409C27.9707 28.3116 28.2631 28.1823 28.5316 28.0232C28.8 27.8622 29.0526 27.6613 29.2892 27.4167C29.5875 27.1184 29.8182 26.7525 29.9773 26.321ZM27.9946 23.3679C28.4063 23.7795 28.6111 24.3125 28.6111 24.9687C28.6111 25.6249 28.4063 26.1579 27.9946 26.5656C27.8276 26.7346 27.6486 26.8619 27.4577 26.9533C27.2668 27.0429 27.062 27.1145 26.8472 27.1622C26.6324 27.2119 26.4017 27.2417 26.1591 27.2517C25.9145 27.2616 25.662 27.2676 25.3975 27.2676C25.139 27.2676 24.8884 27.2656 24.6458 27.2616L24.6046 27.2609C24.3723 27.2572 24.1274 27.2532 23.8722 27.2457V22.6858C24.1446 22.6798 24.4012 22.6758 24.6458 22.6758H25.3975C25.662 22.6758 25.9145 22.6818 26.1591 22.6917C26.4017 22.7016 26.6324 22.7295 26.8472 22.7752C27.062 22.821 27.2668 22.8886 27.4577 22.9801C27.6486 23.0715 27.8276 23.2008 27.9946 23.3679ZM57.4601 28.6278H58.3789L54.5488 21.25H53.0454L49.2153 28.6278H50.8738L51.542 27.3033H56.0303L56.4698 28.1585C56.5255 28.2698 56.5812 28.3573 56.6368 28.419C56.6925 28.4826 56.7562 28.5284 56.8298 28.5601C56.9033 28.592 56.9888 28.6119 57.0902 28.6178C57.1897 28.6238 57.313 28.6278 57.4601 28.6278ZM53.7871 22.8548L55.3323 25.9232H52.242L53.7871 22.8548ZM60.9701 26.4462V28.6278H59.4249V21.3216C59.8147 21.3076 60.2422 21.2957 60.7096 21.2858C61.1769 21.2758 61.6303 21.2698 62.0678 21.2698C63.42 21.2698 64.4483 21.4667 65.1502 21.8605C65.854 22.2542 66.206 22.9085 66.206 23.8272C66.206 24.3423 66.1047 24.7678 65.9039 25.1059C65.701 25.444 65.4207 25.7125 65.0627 25.9153C64.7026 26.1162 64.2774 26.2574 63.7861 26.3369C63.2948 26.4164 62.7559 26.4582 62.1712 26.4582C62.0121 26.4582 61.8172 26.4562 61.5905 26.4522C61.3658 26.4483 61.159 26.4462 60.9701 26.4462ZM60.9701 25.0363C61.157 25.0363 61.3479 25.0383 61.5448 25.0423C61.7397 25.0463 61.9167 25.0483 62.0777 25.0483C62.3064 25.0483 62.5312 25.0463 62.7499 25.0423C62.9688 25.0383 63.1733 25.0224 63.3665 24.9946C63.5573 24.9667 63.7322 24.923 63.8934 24.8633C64.0526 24.8036 64.1895 24.7181 64.3009 24.6068C64.3985 24.5014 64.4742 24.386 64.5256 24.2607C64.5775 24.1355 64.6034 23.9843 64.6034 23.8093C64.6034 23.69 64.5815 23.5707 64.5358 23.4474C64.49 23.3241 64.4284 23.2267 64.3527 23.1491C64.2494 23.0437 64.1259 22.9602 63.987 22.8965C63.8477 22.8329 63.6865 22.7872 63.5018 22.7554C63.3167 22.7236 63.1077 22.7037 62.8753 22.6917C62.6425 22.6818 62.3761 22.6758 62.0777 22.6758H61.5448C61.3499 22.6758 61.159 22.6798 60.9701 22.6858V25.0363ZM75.6838 26.4522C75.8847 25.9889 75.9863 25.4957 75.9863 24.9747C75.9863 24.4517 75.8867 23.9605 75.6838 23.4991C75.4813 23.0358 75.1909 22.6321 74.813 22.288C74.4332 21.944 73.9698 21.6736 73.4247 21.4747C72.878 21.2758 72.2595 21.1764 71.5714 21.1764C70.8813 21.1764 70.2649 21.2758 69.7181 21.4747C69.1714 21.6716 68.7077 21.944 68.3302 22.288C67.9503 22.6321 67.6599 23.0358 67.4591 23.4991C67.2582 23.9605 67.1565 24.4517 67.1565 24.9747C67.1565 25.4977 67.2562 25.9889 67.4591 26.4522C67.6599 26.9156 67.9503 27.3193 68.3302 27.6633C68.7097 28.0074 69.1714 28.2778 69.7181 28.4767C70.2649 28.6755 70.8813 28.775 71.5714 28.775C72.2615 28.775 72.878 28.6755 73.4247 28.4767C73.9719 28.2798 74.4332 28.0074 74.813 27.6633C75.1909 27.3193 75.4813 26.9156 75.6838 26.4522ZM70.448 22.7375C70.7918 22.6221 71.1676 22.5645 71.5775 22.5645C71.987 22.5645 72.3648 22.6201 72.707 22.7375C73.0509 22.8528 73.3453 23.0139 73.592 23.2227C73.8366 23.4315 74.0294 23.686 74.1687 23.9843C74.308 24.2826 74.3773 24.6128 74.3773 24.9747C74.3773 25.3426 74.308 25.6747 74.1687 25.971C74.0314 26.2673 73.8386 26.5198 73.592 26.7287C73.3453 26.9375 73.0509 27.0985 72.707 27.2139C72.3648 27.3292 71.987 27.3869 71.5775 27.3869C71.1676 27.3869 70.7918 27.3292 70.448 27.2139C70.1037 27.0985 69.8077 26.9375 69.557 26.7287C69.3083 26.5178 69.1135 26.2673 68.9742 25.971C68.8352 25.6747 68.7656 25.3446 68.7656 24.9747C68.7656 24.6147 68.8352 24.2826 68.9742 23.9843C69.1115 23.686 69.3063 23.4315 69.557 23.2227C69.8077 23.0139 70.1037 22.8528 70.448 22.7375ZM88.9322 22.7295H91.7202V21.3215H84.6011V22.7295H87.3891V28.6278H88.9322V22.7295ZM99.1398 21.3215V22.7315H94.3393V24.1931H98.7441V25.6031H94.3393V27.2198H99.275V28.6298H93.3272C93.1523 28.6298 93.0206 28.5821 92.9311 28.4846C92.84 28.3872 92.7963 28.2619 92.7963 28.1087V21.3215H99.1398Z" fill="#5C5C5C"/>
</g>
<defs>
<clipPath id="clip0_1704_8817">
<rect width="76.95" height="25.92" fill="white" transform="translate(22.3251 3.04004)"/>
</clipPath>
</defs>
</svg>
